# xmcd
#
# Track frame offsets: 
#        150
#        14117
#        32345
#        63015
#        81905
#        96567
#        121697
#        146617
#        159562
#        174652
#        198690
#
# Disc length: 2932 seconds
#
# Revision: 0
# Processed by: cddbd v1.5.1PL0 Copyright (c) Steve Scherf et al.
# Submitted via: ExactAudioCopy v0.95a5
#
DISCID=930b720b
DTITLE=Andrew 'Jr Boy' Jones - I Need Time
DYEAR=1996
DGENRE=Blues
TTITLE0=I Got A Stick
TTITLE1=Hoochie Mama
TTITLE2=Ineed Time
TTITLE3=These Bills
TTITLE4=Big Leg, Heavy Bottom
TTITLE5=Blues Joint
TTITLE6=I'm With You
TTITLE7=Jr Boy's Jam
TTITLE8=You're A Dog
TTITLE9=Gotta Be Foolin' You
TTITLE10=Tribute To Freddie
EXTD=
EXTT0=
EXTT1=
EXTT2=
EXTT3=
EXTT4=
EXTT5=
EXTT6=
EXTT7=
EXTT8=
EXTT9=
EXTT10=
PLAYORDER=
